<svg xmlns="http://www.w3.org/2000/svg" width="96" height="96" viewBox="0 0 96 96">
  <title>Dummy growth pulse placeholder</title>
  <rect width="96" height="96" fill="none"/>
  <circle cx="48" cy="48" r="36" fill="#ffd85a" fill-opacity="0.52" stroke="#fff9cf" stroke-width="7"/>
  <circle cx="48" cy="48" r="21" fill="none" stroke="#ffffff" stroke-width="5" stroke-opacity="0.94"/>
  <path d="M48 6 L53 25 L48 21 L43 25 Z" fill="#f8e7a0"/>
  <path d="M48 90 L43 71 L48 75 L53 71 Z" fill="#f8e7a0"/>
  <path d="M6 48 L25 43 L21 48 L25 53 Z" fill="#f8e7a0"/>
  <path d="M90 48 L71 53 L75 48 L71 43 Z" fill="#f8e7a0"/>
  <path d="M19 19 L35 29 L29 35 Z" fill="#e88735"/>
  <path d="M77 19 L67 35 L61 29 Z" fill="#e88735"/>
  <path d="M19 77 L29 61 L35 67 Z" fill="#e88735"/>
  <path d="M77 77 L61 67 L67 61 Z" fill="#e88735"/>
  <rect x="44" y="34" width="8" height="28" rx="2" fill="#4a3a20"/>
  <rect x="34" y="44" width="28" height="8" rx="2" fill="#4a3a20"/>
</svg>
