<svg xmlns="http://www.w3.org/2000/svg" width="96" height="96" viewBox="0 0 96 96">
  <title>Dummy library page effect placeholder</title>
  <rect width="96" height="96" fill="none"/>
  <circle cx="48" cy="48" r="34" fill="#dce8ff" fill-opacity="0.36" stroke="#fff3bd" stroke-width="5"/>
  <path d="M28 28 H47 C52 28 56 32 56 37 V70 H35 C31 70 28 67 28 63 Z" fill="#f3e2b6" stroke="#8a6d45" stroke-width="3"/>
  <path d="M56 34 H67 C70 34 72 37 72 40 V69 H56 Z" fill="#e5cf9a" stroke="#8a6d45" stroke-width="3"/>
  <path d="M35 42 H49 M35 51 H50 M35 60 H47" stroke="#6f5840" stroke-width="2" stroke-linecap="round"/>
  <path d="M23 21 L28 31 L18 28 Z M74 18 L77 29 L67 24 Z M76 70 L85 75 L76 80 Z" fill="#f4c95d"/>
</svg>
